PathFileType	4	(X/Y/Z)	Run_200 02
DataRate	CameraRate	NumFrames	NumMarkers	Units	OrigDataRate	OrigDataStartFrame	OrigNumFrames
120	120	4	42	mm	120	110	128
Frame#	Time	LASI			RASI			LPSI			RPSI			RTH1			RTH2			RTH3			LTH1			LTH2			LTH3			RTB1			RTB2			RTB3			LTB1			LTB2			LTB3			RCAL			RTOE			RMT5			LCAL			LTOE			LMT5			LACR			RACR			CLAV			C7			RUA1			RUA2			RUA3			RLEL			RMEL			LUA1			LUA2			LUA3			LLEL			LMEL			RFAsuperior			RFAradius			RFAulna			LFAsuperior			LFAradius			LFAulna			
		X1	Y1	Z1	X2	Y2	Z2	X3	Y3	Z3	X4	Y4	Z4	X5	Y5	Z5	X6	Y6	Z6	X7	Y7	Z7	X8	Y8	Z8	X9	Y9	Z9	X10	Y10	Z10	X11	Y11	Z11	X12	Y12	Z12	X13	Y13	Z13	X14	Y14	Z14	X15	Y15	Z15	X16	Y16	Z16	X17	Y17	Z17	X18	Y18	Z18	X19	Y19	Z19	X20	Y20	Z20	X21	Y21	Z21	X22	Y22	Z22	X23	Y23	Z23	X24	Y24	Z24	X25	Y25	Z25	X26	Y26	Z26	X27	Y27	Z27	X28	Y28	Z28	X29	Y29	Z29	X30	Y30	Z30	X31	Y31	Z31	X32	Y32	Z32	X33	Y33	Z33	X34	Y34	Z34	X35	Y35	Z35	X36	Y36	Z36	X37	Y37	Z37	X38	Y38	Z38	X39	Y39	Z39	X40	Y40	Z40	X41	Y41	Z41	X42	Y42	Z42	

110	1.041667	919.156125	1032.666043	-451.014963	905.906283	1057.004886	-189.272547	734.440083	1072.736055	-370.638713	726.928841	1073.173001	-290.110587	866.6311470000001	887.415338	-134.443839	951.196142	797.08015	-143.178211	917.978143	671.36293	-185.161577	859.69516	813.625685	-488.987021	911.014167	691.486618	-474.16695	840.271172	584.02518	-457.516994	1014.08955	394.215543	-274.033925	982.5682859999999	329.190349	-208.679732	963.758478	235.119117	-281.529211	767.604635	390.168542	-395.390556	675.386726	380.254395	-449.165056	576.642278	320.29254	-387.56425	811.149538	102.898911	-296.406307	1044.730024	71.884344	-314.891795	975.776177	49.953628	-219.417273	416.746913	370.873202	-370.858553	474.463625	144.502053	-372.791094	424.087971	206.441756	-455.044341	935.54472	1510.123083	-482.228387	907.683849	1503.187258	-133.961321	968.021165	1451.745567	-271.605386	851.554022	1550.526034	-309.069222	872.721492	1403.423798	-55.037502	850.215161	1315.588963	-55.076814	779.949391	1330.047327	-22.248768	728.335223	1208.312959	30.104153	700.604045	1197.150218	-46.353338	913.719284	1415.642757	-554.3888889999999	910.667539	1342.967526	-543.274194	814.443433	1345.534222	-561.345521	791.622445	1184.749816	-609.877626	737.481484	1184.749415	-540.215997	821.326686	1152.767448	31.11261	956.027767	1066.267575	-55.829623	933.952812	1032.111619	4.630571	881.32408	1159.665326	-575.214366	1004.988653	1143.30085	-437.904542	999.0656310000001	1077.001317	-466.883447	
111	1.05	917.700192	1030.231005	-451.824021	904.276032	1053.659519	-189.476356	732.623953	1069.685499	-370.413869	725.340962	1070.526109	-290.001962	864.579096	884.641844	-134.18634	947.156332	792.837285	-142.028378	913.670978	668.299235	-185.404729	862.717588	810.519493	-488.835477	919.035245	689.743214	-473.720114	851.231058	581.203214	-457.431975	1006.332426	390.509844	-272.880232	972.8723189999999	325.984506	-208.118759	951.316794	233.066884	-281.203705	780.566088	390.868211	-395.963761	688.5137989999999	380.86886	-450.319807	588.602965	322.043514	-389.615234	794.793605	103.387722	-296.143536	1028.191377	72.073153	-315.253135	959.124512	49.686262	-219.113895	428.338815	374.752593	-373.032371	485.513962	148.259153	-376.87593	435.62208	211.177421	-458.776963	933.420295	1506.053315	-482.588063	907.865153	1498.701852	-134.029554	967.105432	1447.050461	-272.271578	850.362013	1547.149321	-309.175566	874.349461	1398.641857	-54.993797	856.4129359999999	1309.029135	-54.263001	786.339322	1320.871249	-20.185802	741.405263	1197.199338	34.3133	711.833022	1184.436785	-41.306363	910.047466	1411.84704	-554.283867	907.3815970000001	1338.962031	-543.28085	811.429513	1341.309534	-561.223927	788.369829	1180.253138	-609.178739	734.721015	1180.448218	-539.448227	836.504279	1144.196477	33.509101	970.460723	1059.816016	-55.253308	950.570188	1026.19508	6.846626	877.24163	1151.122264	-575.629502	1001.155261	1126.815421	-439.143207	992.906555	1061.639921	-469.746653	
112	1.058333	916.233065	1028.115925	-452.360289	902.710898	1050.51819	-189.533361	730.680073	1067.155016	-369.823662	723.78449	1068.417383	-289.425905	862.425179	882.625797	-133.786932	943.015633	789.404149	-141.032133	908.998364	665.7078749999999	-185.09635	865.622933	807.858936	-488.751384	926.881828	688.399749	-473.545593	862.358188	578.693516	-457.300802	997.771081	387.218185	-271.870651	962.818541	323.281711	-207.4972	938.6154289999999	231.342777	-280.656813	793.727899	392.436067	-396.825558	702.054425	381.543508	-451.350701	601.2975300000001	323.39289	-391.610245	778.523164	103.997795	-295.804837	1011.714723	71.869708	-315.146595	942.493658	49.371831	-218.767783	440.474025	377.57762	-375.247952	498.083183	151.181368	-380.783042	448.277332	214.751143	-462.347208	931.188386	1502.755518	-482.776882	908.390316	1494.669501	-134.207382	966.025135	1442.962854	-273.028892	849.1317299999999	1544.3463	-308.960933	875.465592	1395.112944	-54.901104	862.666342	1303.782647	-53.573037	792.497934	1312.776858	-19.139263	754.6891429999999	1187.484583	38.008784	723.412205	1173.03419	-36.822076	906.144937	1409.06452	-554.177229	904.014616	1335.938877	-543.595053	808.203632	1337.993229	-560.668256	785.256512	1176.67389	-608.452973	731.7621799999999	1177.036836	-538.651116	852.067572	1137.408197	35.255634	985.146473	1055.167105	-55.178076	967.6122329999999	1022.010383	8.432572	873.261422	1144.065838	-574.842246	996.770846	1111.108496	-440.451638	986.252384	1047.314227	-473.019653	
113	1.066667	914.625365	1026.346838	-452.678683	901.324671	1047.838308	-189.481626	728.664767	1065.120877	-369.160259	722.374637	1066.720652	-288.745436	859.9298669999999	881.096682	-133.359948	938.9604409999999	786.879129	-140.20689	904.097548	663.465083	-184.200966	868.5233480000001	805.790733	-488.696745	934.450426	687.687952	-473.611952	873.4700360000001	576.699729	-457.093542	988.33251	384.243433	-271.038724	952.300205	320.944792	-206.852092	925.5776959999999	229.793453	-279.984578	807.160664	394.432344	-397.728715	716.000174	382.25702	-452.244355	614.6817569999999	324.40089	-393.416808	762.324511	104.688445	-295.459678	995.303891	71.306847	-314.703908	925.892812	49.086544	-218.370201	453.024531	379.269723	-377.475608	511.974857	153.173243	-384.335943	462.161141	217.082516	-465.708875	928.762171	1500.183503	-482.871296	909.115256	1491.215871	-134.364957	964.842143	1439.874231	-273.789704	848.074562	1542.281748	-308.293801	876.904405	1392.007017	-54.720076	868.913874	1299.650393	-52.840691	798.365528	1305.744247	-18.898478	767.775767	1179.328419	41.186661	735.122246	1163.140105	-32.891004	902.297988	1406.904032	-554.134926	900.647959	1333.614467	-544.036592	804.87605	1335.477491	-559.807234	782.0787759999999	1174.124644	-607.840332	728.305565	1174.607436	-538.071018	867.327574	1132.40277	36.505149	999.847423	1052.735608	-55.640444	984.816005	1019.858231	9.099304	869.5911610000001	1138.974366	-573.014967	991.7515560000001	1096.715053	-441.761994	979.098684	1034.656037	-476.680238	
